<svg xmlns="http://www.w3.org/2000/svg" width="1600" height="1131" viewBox="0 0 1600 1131" version="1.1"><path d="M 588.504 287.126 C 576.043 298.963, 567.481 311.819, 561.930 327.029 C 547.276 367.181, 556.796 410.316, 586.869 440.027 C 601.218 454.204, 616.648 462.932, 636.500 468.100 C 644.233 470.114, 647.823 470.437, 662 470.397 C 676.540 470.356, 679.653 470.041, 688.206 467.744 C 693.544 466.311, 701.697 463.364, 706.325 461.195 C 715.014 457.123, 727.532 449.199, 726.658 448.325 C 726.385 448.052, 722.188 448.316, 717.331 448.911 C 705.361 450.379, 698.637 450.279, 686.313 448.449 C 638.364 441.329, 600.767 406.897, 588.718 359.068 C 586.909 351.891, 586.556 347.579, 586.538 332.500 C 586.514 312.369, 587.975 304.139, 594.393 288.250 C 596.226 283.712, 597.339 280, 596.866 280 C 596.393 280, 592.630 283.207, 588.504 287.126 M 945.285 364.250 C 941.764 368.088, 938.417 375.882, 933.153 392.500 C 912.296 458.347, 882.265 590.872, 873.920 653.895 C 872.755 662.696, 872.794 663.376, 874.529 664.645 C 877.084 666.513, 880.402 666.341, 882.168 664.250 C 882.982 663.288, 884.880 657.100, 886.387 650.500 C 893.240 620.492, 919.178 578.383, 928.908 581.471 C 933.018 582.775, 935.991 594.136, 935.981 608.500 L 935.974 619.500 927.779 626.500 C 908.979 642.560, 893.391 666.946, 892.213 682.144 C 891.209 695.091, 898.349 703.470, 908.725 701.524 C 916.509 700.064, 927.078 684.965, 935.371 663.458 C 939.604 652.482, 941.736 644.532, 943.944 631.500 L 945.637 621.500 957.069 613.755 C 963.356 609.495, 975.025 602.685, 983 598.620 C 997.498 591.232, 1014.528 584.195, 1015.517 585.184 C 1015.806 585.473, 1014.488 590.387, 1012.588 596.104 C 1001.713 628.834, 997.839 647.439, 1001.200 650.800 C 1001.860 651.460, 1003.892 652, 1005.715 652 C 1009.781 652, 1011.448 649.570, 1015.895 637.154 C 1020.459 624.410, 1031.236 602.854, 1038.507 591.923 C 1046.651 579.680, 1047.281 579.144, 1050.970 581.323 C 1055.155 583.796, 1059.279 583.448, 1062.364 580.364 C 1067.054 575.673, 1064.844 572.478, 1058.999 575.500 C 1056.104 576.997, 1055.662 577.004, 1054.080 575.573 C 1053.125 574.708, 1050.621 574, 1048.516 574 C 1043.879 574, 1040.062 577.629, 1032.086 589.620 C 1029.203 593.954, 1027.092 596.600, 1027.394 595.500 C 1027.695 594.400, 1029.080 588.775, 1030.470 583 C 1034.298 567.096, 1033.783 563, 1027.955 563 C 1024.515 563, 1022.772 565.203, 1020.639 572.250 C 1019.256 576.816, 1018.475 578, 1016.846 578 C 1009.086 578, 974.514 593.695, 956.500 605.397 L 946.500 611.893 945.739 603.696 C 944.367 588.916, 939.774 577.486, 934.011 574.506 C 924.151 569.407, 914.435 576.350, 901.907 597.446 C 898.658 602.917, 896 607.088, 896 606.715 C 896 605.130, 914.560 518.669, 919.122 499 C 926.238 468.324, 938.192 421.342, 943.899 401.624 C 947.747 388.328, 949.319 384.298, 951.310 382.624 C 953.766 380.561, 956 373.366, 956 367.522 C 956 362.163, 949.125 360.063, 945.285 364.250 M 862.777 386.885 C 852.096 391.184, 837.214 404.614, 823.866 422 C 808.563 441.932, 783.632 479.760, 771.023 502.178 C 766.041 511.036, 765.279 511.911, 762.040 512.496 C 746.424 515.320, 732.907 520.194, 731.657 523.452 C 731.286 524.419, 731.966 525.587, 733.477 526.577 C 736.112 528.303, 742.286 527.963, 753.208 525.490 L 758.916 524.197 752.353 537.294 C 748.743 544.497, 741.960 558.965, 737.278 569.445 C 732.597 579.925, 727.282 591.452, 725.467 595.060 C 721.089 603.761, 718.657 612.356, 719.420 616.424 C 720.359 621.433, 724.260 624.500, 729.690 624.500 C 733.643 624.500, 734.591 624.055, 737.141 621 C 741.075 616.288, 743.920 610.192, 744.916 604.339 C 746.811 593.210, 779.382 520.621, 782.971 519.530 C 790.983 517.094, 829.102 511.388, 845.050 510.237 L 855.601 509.475 848.734 530.488 C 833.465 577.212, 798 694.491, 798 698.257 C 798 700.663, 801.524 702.325, 803.913 701.046 C 806.460 699.684, 814.058 676.565, 835.972 603.500 C 842.076 583.150, 851.180 553.563, 856.203 537.750 L 865.337 509 874.508 509 C 883.320 509, 883.724 509.098, 884.818 511.500 C 886.263 514.671, 891.050 514.876, 895.814 511.972 C 898.424 510.381, 899.061 509.393, 898.814 507.325 C 898.179 502.016, 889.865 499, 875.864 499 C 872.089 499, 869 498.788, 869 498.529 C 869 498.270, 870.998 491.183, 873.440 482.779 C 886.998 436.122, 891.557 405.248, 886.329 395.500 C 885.149 393.300, 882.802 390.188, 881.114 388.584 C 877.107 384.778, 869.714 384.093, 862.777 386.885 M 470.104 395.718 C 458.154 401.605, 420.486 473.665, 401.177 527.578 C 372.266 608.299, 364.973 679.683, 382.570 709.710 C 391.723 725.328, 405.802 730.485, 423.262 724.615 C 440.426 718.845, 462.145 705.909, 481.500 689.927 C 493.726 679.833, 535.715 637.905, 550.030 621.500 L 560.500 609.500 560.500 618.173 C 560.500 629.059, 562.245 632.044, 569.377 633.362 C 577.925 634.941, 583.022 631.060, 592.734 615.575 C 595.864 610.584, 599.679 604.745, 601.213 602.600 L 604 598.700 604 601.900 C 604 611.883, 612.326 615.208, 621.916 609.054 C 624.553 607.362, 627.521 605.082, 628.510 603.989 C 629.500 602.895, 630.602 602, 630.959 602 C 631.316 602, 630.129 606.388, 628.322 611.750 C 626.515 617.112, 625.028 622.670, 625.018 624.101 C 624.969 631.151, 630.032 638.540, 635.632 639.591 C 644.115 641.182, 652.347 631.602, 666.212 604 L 674.500 587.500 675 598.500 C 675.652 612.839, 676.892 615, 684.468 615 C 689.572 615, 698.916 608.128, 713.250 593.831 C 725.772 581.341, 728.089 577.739, 724.488 576.357 C 723.479 575.970, 718.729 579.886, 710.200 588.138 C 697.489 600.437, 688.315 607.594, 684.500 608.188 C 682.586 608.487, 682.500 607.937, 682.500 595.364 C 682.500 583.853, 682.264 581.967, 680.595 580.114 C 679.420 578.810, 677.479 578, 675.532 578 C 670.674 578, 666.993 582.742, 656.518 602.500 C 650.754 613.370, 644.824 622.020, 641.881 623.849 C 639.802 625.141, 639.736 625.070, 640.317 622.167 C 642.454 611.481, 653.629 589.966, 661.711 580.977 C 665.856 576.366, 666.651 575.900, 669.463 576.427 C 675.083 577.481, 678.881 571.881, 675.107 568.107 C 672.108 565.108, 666.711 564.457, 661.463 566.461 C 656.645 568.301, 651.409 573.103, 637.632 588.315 C 630.082 596.650, 620.190 605, 617.864 605 C 617.499 605, 618.327 601.759, 619.705 597.799 C 623.619 586.544, 621.847 580, 614.886 580 C 610.803 580, 603.920 588.579, 588.634 612.718 C 581.487 624.005, 577.224 629, 574.737 629 C 572.895 629, 574.983 620.754, 582.579 598.029 C 586.710 585.671, 589.957 574.424, 589.795 573.037 C 589.607 571.427, 588.486 570.031, 586.697 569.177 C 582.853 567.343, 580.498 569.021, 575.527 577.132 C 573.381 580.635, 566.408 589.350, 560.032 596.500 C 553.656 603.650, 543.056 615.575, 536.476 623 C 520.388 641.156, 492.932 668.466, 479.673 679.500 C 457.759 697.737, 441.169 708.114, 424.670 713.902 C 410.300 718.944, 402.790 717.952, 395.680 710.073 C 386.271 699.645, 382.748 680.741, 384.953 652.500 C 387.750 616.660, 397.191 578.239, 413.949 534.500 C 427.331 499.573, 447.449 457.228, 462.992 431.273 C 471.056 417.807, 471.657 417.077, 474.893 416.796 C 479.597 416.387, 482.330 412.536, 482.426 406.179 C 482.512 400.486, 480.759 396.667, 477.343 395.110 C 474.259 393.705, 474.177 393.712, 470.104 395.718 M 863.987 399.648 C 850.743 408.453, 835.088 428.256, 813.218 463.867 C 802.473 481.363, 788.090 506.192, 788.414 506.685 C 788.481 506.786, 793.478 506.028, 799.518 504.999 C 816.996 502.023, 833.329 500.068, 846.661 499.355 L 859.027 498.694 862.485 487.597 C 867.139 472.658, 872.187 452.682, 875.919 434.428 C 879.352 417.632, 879.934 405.172, 877.551 399.468 C 876.311 396.500, 875.624 396, 872.788 396 C 870.644 396, 867.536 397.288, 863.987 399.648 M 1154.729 568.693 C 1153.755 568.947, 1150.949 572.587, 1148.493 576.783 C 1136.178 597.821, 1105.889 627.286, 1087.500 636.117 C 1076.306 641.493, 1074.137 639.781, 1073.250 624.874 L 1072.737 616.247 1079.633 612.623 C 1100.585 601.613, 1111.939 584.483, 1103.726 576.273 C 1101.442 573.990, 1100.117 573.514, 1096.226 573.579 C 1074.808 573.937, 1053.427 606.536, 1057.817 632.139 C 1059.103 639.639, 1060.966 644.106, 1064.367 647.845 C 1068.979 652.915, 1075.800 654.364, 1082.289 651.652 C 1087.844 649.331, 1105.916 634.262, 1120.738 619.592 C 1128.569 611.842, 1134.764 606.175, 1134.505 607 C 1131.607 616.224, 1132.095 624.965, 1135.785 629.920 C 1137.939 632.814, 1144.283 634.648, 1148.486 633.593 C 1151.802 632.761, 1159.312 625.899, 1162.130 621.129 C 1163.308 619.133, 1167.024 613.253, 1170.386 608.062 L 1176.500 598.624 1177.026 603.062 C 1177.691 608.671, 1178.470 609.881, 1182.504 611.566 C 1189.505 614.491, 1196.366 609.894, 1217.250 588.284 C 1222.612 582.735, 1227 577.476, 1227 576.598 C 1227 572.836, 1222.792 575.757, 1211.514 587.347 C 1200.596 598.568, 1191.670 606.004, 1190.511 604.844 C 1190.264 604.598, 1191.215 601.083, 1192.623 597.033 C 1195.355 589.177, 1195.277 585.069, 1192.333 581.816 C 1187.514 576.491, 1181.897 581.333, 1167.991 602.801 C 1154.487 623.646, 1152.465 626.413, 1149.626 627.933 C 1148.183 628.705, 1146.784 629.117, 1146.515 628.849 C 1145.752 628.085, 1149.500 615.234, 1156.631 594.167 C 1160.659 582.269, 1162.958 573.971, 1162.612 572.589 C 1162.174 570.843, 1157.767 567.508, 1156.703 568.116 C 1156.591 568.180, 1155.703 568.440, 1154.729 568.693 M 1094.381 580.055 C 1090.876 581.351, 1084.081 590.032, 1079.787 598.698 C 1077.523 603.267, 1075.963 607.297, 1076.320 607.654 C 1077.318 608.651, 1087.868 601.269, 1093.051 595.947 C 1100.572 588.227, 1102.866 580.983, 1098.180 579.757 C 1097.215 579.505, 1095.505 579.639, 1094.381 580.055 M 926.707 638.950 C 919.678 646.542, 913.746 655.172, 909.952 663.322 C 904.834 674.320, 902.375 687.877, 905.183 689.613 C 907.210 690.866, 913.773 682.264, 919.464 670.896 C 924.611 660.613, 933.466 635.898, 932.761 633.782 C 932.576 633.227, 929.852 635.553, 926.707 638.950 M 582.839 750.574 C 576.319 752.581, 569.559 760.168, 568.059 767.160 C 564.930 781.753, 575.124 795, 589.482 795 C 598.934 795, 605.994 790.758, 610.219 782.540 C 612.715 777.686, 612.986 768.086, 610.773 762.914 C 608.465 757.519, 602.425 752.204, 596.655 750.490 C 590.622 748.699, 588.898 748.709, 582.839 750.574 M 716.838 750.134 C 711.904 751.512, 705.141 757.479, 702.886 762.444 C 700.689 767.282, 700.420 776.681, 702.348 781.282 C 705.988 789.967, 713.594 794.941, 723.290 794.978 C 730.309 795.005, 735.187 792.749, 740.264 787.129 C 750.343 775.973, 746.516 758.430, 732.423 751.183 C 729.249 749.551, 720.931 748.991, 716.838 750.134 M 798.317 750.393 C 782.844 755.411, 777.208 774.705, 787.652 786.906 C 792.478 792.545, 797.587 795, 804.492 795 C 816.203 795, 824.299 788.524, 826.865 777.105 L 827.787 773 813.894 773 L 800 773 800 775.500 L 800 778 810.500 778 C 816.275 778, 820.997 778.337, 820.993 778.750 C 820.990 779.163, 820.114 780.824, 819.047 782.442 C 816.139 786.854, 810.291 789.992, 805 789.978 C 789.967 789.941, 782.549 771.396, 792.868 759.648 C 798.691 753.018, 811.298 753.147, 817.407 759.898 C 819.147 761.820, 825 762.935, 825 761.344 C 825 760.984, 823.849 759.180, 822.442 757.335 C 817.465 750.809, 806.638 747.694, 798.317 750.393 M 434 772 L 434 794 436.500 794 C 438.981 794, 439 793.933, 439 785 L 439 776 445.096 776 C 455.510 776, 460.801 770.800, 459.763 761.587 C 458.813 753.164, 453.646 750.016, 440.750 750.006 L 434 750 434 772 M 499 772 L 499 794 501.500 794 C 503.991 794, 504 793.967, 504 784.500 L 504 775 514 775 L 524 775 524 784.500 C 524 793.967, 524.009 794, 526.500 794 L 529 794 529 772 L 529 750 526.500 750 L 524 750 524 760 L 524 770 514 770 L 504 770 504 760 L 504 750 501.500 750 L 499 750 499 772 M 645 752.500 C 645 754.796, 645.367 755, 649.500 755 L 654 755 654 774.500 L 654 794 656.500 794 L 659 794 659 774.500 L 659 755 663.500 755 C 667.633 755, 668 754.796, 668 752.500 L 668 750 656.500 750 L 645 750 645 752.500 M 866 772 L 866 794 868.500 794 L 871 794 871 774.358 L 871 754.715 877.046 755.347 C 884.708 756.148, 886.572 757.174, 887.950 761.348 C 890.043 767.691, 885.299 773, 877.539 773 C 875.065 773, 875.129 773.186, 880.673 782.250 C 887.738 793.799, 888.139 794.232, 891.385 793.829 L 894.039 793.500 889.090 785.530 L 884.142 777.560 887.051 776.336 C 891.678 774.391, 894.183 769.474, 893.723 763.242 C 893.032 753.894, 887.241 750, 874.032 750 L 866 750 866 772 M 944.533 751.696 C 944.136 752.688, 941.200 760.250, 938.010 768.500 C 934.819 776.750, 931.268 785.862, 930.119 788.750 L 928.029 794 930.857 794 C 933.398 794, 933.933 793.366, 936.134 787.750 L 938.583 781.500 947.993 781.500 L 957.402 781.500 959.788 787.750 C 961.959 793.434, 962.438 794, 965.079 794 L 967.984 794 966.488 790.250 C 965.666 788.188, 961.884 778.400, 958.085 768.500 C 951.409 751.103, 951.078 750.490, 948.216 750.196 C 946.108 749.980, 945.047 750.412, 944.533 751.696 M 1003 772 L 1003 794 1006 794 L 1009 794 1009 785.113 L 1009 776.226 1015.951 775.833 C 1021.555 775.516, 1023.391 774.981, 1025.422 773.073 C 1030.896 767.931, 1031.169 759.323, 1026.022 754.176 C 1022.677 750.831, 1019.463 750, 1009.875 750 L 1003 750 1003 772 M 1068 772 L 1068 794 1071 794 L 1074 794 1074 784.500 L 1074 775 1083.500 775 L 1093 775 1093 784.500 C 1093 793.967, 1093.009 794, 1095.500 794 L 1098 794 1098 772 L 1098 750 1095.500 750 L 1093 750 1093 760 L 1093 770 1083.500 770 L 1074 770 1074 760 L 1074 750 1071 750 L 1068 750 1068 772 M 1134 750.637 C 1134 750.987, 1137.150 757.482, 1141 765.069 C 1147.835 778.539, 1148 779.043, 1148 786.432 C 1148 793.838, 1148.054 794, 1150.500 794 C 1152.959 794, 1153 793.868, 1153 785.987 C 1153 778.062, 1153.078 777.818, 1160.007 763.987 L 1167.013 750 1164.001 750 C 1161.173 750, 1160.667 750.646, 1155.766 760.500 C 1152.894 766.275, 1150.287 771, 1149.972 771 C 1149.658 771, 1147.227 766.275, 1144.571 760.500 C 1140.075 750.727, 1139.542 750, 1136.870 750 C 1135.292 750, 1134 750.287, 1134 750.637 M 586.365 754.992 C 571.390 758.375, 568.287 779.809, 581.639 787.634 C 585.328 789.796, 586.989 790.166, 591.385 789.801 C 597.957 789.256, 602.120 786.449, 604.914 780.677 C 611.575 766.919, 600.633 751.769, 586.365 754.992 M 719.474 755.205 C 714.592 756.204, 710.408 759.892, 707.907 765.397 C 705.555 770.577, 705.550 774.430, 707.890 779.500 C 715.087 795.095, 736.082 792.944, 739.837 776.228 C 742.695 763.512, 732.137 752.612, 719.474 755.205 M 439 762.862 L 439 771 443.566 771 C 448.115 771, 451.839 769.691, 453.235 767.600 C 454.665 765.458, 454.031 759.338, 452.208 757.688 C 451.222 756.796, 447.847 755.764, 444.708 755.395 L 439 754.725 439 762.862 M 1009 763.124 L 1009 771.248 1014.485 770.793 C 1021.079 770.246, 1024 768.018, 1024 763.536 C 1024 759.198, 1022.150 757.053, 1017.473 755.969 C 1008.987 754.001, 1009 753.990, 1009 763.124 M 944.474 765.750 C 942.937 770.013, 941.479 774.063, 941.233 774.750 C 940.902 775.676, 942.657 776, 948 776 C 953.343 776, 955.098 775.676, 954.767 774.750 C 950.083 761.646, 948.610 758, 948 758 C 947.597 758, 946.011 761.487, 944.474 765.750" stroke="none" fill="#000000" fill-rule="evenodd"/></svg>