<svg xmlns="http://www.w3.org/2000/svg" width="876" height="544" viewBox="0 0 876 544" version="1.1"><path d="M 224.593 18.250 C 209.951 32.840, 201.221 47.791, 196.516 66.338 C 192.437 82.418, 191.624 90.699, 192.913 103.016 C 196.901 141.097, 218.415 172.713, 251.711 189.423 C 266.681 196.936, 283.420 201, 299.396 201 C 316.202 201, 339.215 194.783, 352.715 186.595 C 366.860 178.016, 367.177 177.136, 355.498 178.873 C 327.144 183.090, 294.609 174.238, 269.901 155.585 C 246.826 138.165, 230.727 111.316, 225.548 81.615 C 221.801 60.126, 225.840 31.135, 235.143 12.750 C 238.447 6.220, 234.712 8.168, 224.593 18.250 M 582.736 97.754 C 578.953 101.702, 575.180 110.697, 567.610 133.814 C 560.230 156.348, 553.959 178.091, 548.520 200 C 546.540 207.975, 544.264 216.525, 543.463 219 C 542.661 221.475, 538.152 239.700, 533.442 259.500 C 515.364 335.503, 504.533 391.390, 506.990 395.982 C 508.462 398.732, 511.705 399.423, 514.510 397.586 C 517.017 395.943, 517.540 394.485, 521 379.500 C 524.679 363.563, 540.239 334.559, 552.032 321.655 C 558.316 314.780, 561.965 313.269, 564.856 316.347 C 568.090 319.789, 570 329.142, 570 341.535 C 570 352.651, 570 352.651, 563.565 357.872 C 543.935 373.799, 527.164 398.377, 525.324 413.915 C 522.908 434.314, 540.295 441.954, 552.885 426.026 C 557.757 419.863, 564.774 407.230, 569.046 396.933 C 572.709 388.105, 577.575 369.877, 578.535 361.390 C 579.220 355.335, 579.220 355.335, 589.877 348.261 C 607.345 336.668, 624.211 328.340, 644.082 321.499 C 650.664 319.233, 650.664 319.233, 646.389 331.867 C 637.561 357.955, 633.606 371.685, 633.199 377.655 C 632.807 383.398, 632.953 383.923, 635.382 385.515 C 638.644 387.652, 642.405 386.838, 644.575 383.525 C 645.456 382.182, 647.713 376.947, 649.592 371.894 C 654.753 358.013, 663.012 341.705, 670.810 330 C 680.844 314.938, 683.065 312.964, 686 316.500 C 686.706 317.350, 688.886 318, 691.034 318 C 694.056 318, 695.358 317.363, 697.474 314.849 C 699.903 311.962, 699.991 311.563, 698.529 310.100 C 697.066 308.637, 696.671 308.653, 693.829 310.283 C 691.037 311.886, 690.559 311.911, 689.035 310.532 C 688.064 309.653, 685.498 309, 683.016 309 C 679.284 309, 678.178 309.539, 674.954 312.927 C 672.900 315.087, 669.282 319.800, 666.915 323.400 C 664.548 327, 662.515 329.845, 662.396 329.723 C 662.277 329.600, 663.488 324.325, 665.087 318 C 668.477 304.583, 668.682 300.927, 666.171 298.655 C 661.929 294.816, 658.109 297.380, 655.164 306.044 C 653.336 311.421, 653.336 311.421, 644.418 314.014 C 628.613 318.610, 603.256 330.431, 588.405 340.126 C 584.298 342.807, 580.792 345, 580.614 345 C 580.436 345, 580.043 340.613, 579.740 335.250 C 579.072 323.424, 576.359 315.513, 571.062 309.945 C 567.788 306.503, 566.742 306, 562.851 306 C 554.128 306, 546.551 313.032, 535.138 331.720 C 532.189 336.549, 530.083 339.600, 530.459 338.500 C 530.834 337.400, 534.271 322.100, 538.096 304.500 C 541.921 286.900, 545.681 270.250, 546.453 267.500 C 547.225 264.750, 550.604 250.800, 553.963 236.500 C 557.322 222.200, 561.823 204.200, 563.964 196.500 C 566.106 188.800, 570.403 173.050, 573.514 161.500 C 582.172 129.357, 585.733 118.941, 589.074 116 C 591.222 114.108, 592.167 112.056, 592.956 107.566 C 594.354 99.619, 594.329 99.384, 591.811 97.039 C 588.818 94.250, 585.871 94.482, 582.736 97.754 M 501.287 118.866 C 478.677 126.679, 450.939 160.751, 401.259 241.738 C 400.842 242.419, 395.550 243.913, 389.500 245.059 C 375.576 247.696, 367 251.324, 367 254.578 C 367 255.845, 367.453 257.162, 368.006 257.503 C 369.830 258.631, 381.391 258.135, 387.683 256.659 C 393.866 255.209, 393.866 255.209, 382.183 278.870 C 354.309 335.322, 351.872 341.291, 353.915 348.112 C 355.366 352.955, 358.295 355, 363.779 355 C 367.349 355, 368.611 354.454, 370.942 351.903 C 374.493 348.015, 378.588 339.738, 379.553 334.500 C 381.178 325.672, 415.364 251, 417.781 251 C 418.204 251, 424.839 249.903, 432.525 248.561 C 452.868 245.011, 467.012 243.175, 479.705 242.436 C 490.911 241.783, 490.911 241.783, 475.476 288.142 C 455.440 348.321, 445.810 378.239, 437.429 406.336 C 430.119 430.843, 429.999 432.500, 435.523 432.500 C 438.210 432.500, 438.518 431.970, 442.787 420 C 445.240 413.125, 451.043 395.575, 455.685 381 C 460.326 366.425, 466.756 346.400, 469.973 336.500 C 473.191 326.600, 478.129 311.075, 480.948 302 C 485.291 288.015, 496.742 253.980, 500.209 244.750 C 501.233 242.026, 501.329 242, 510.384 242 C 518.905 242, 519.593 242.153, 520.513 244.250 C 521.922 247.462, 526.675 247.693, 531.025 244.762 C 539.970 238.734, 532.523 232.639, 514.680 231.385 C 509.356 231.011, 505 230.525, 505 230.306 C 505 230.087, 507.928 220.180, 511.506 208.291 C 518.321 185.646, 524.541 157.735, 525.622 144.942 C 526.702 132.173, 522.238 121.669, 514.329 118.364 C 510.074 116.586, 507.612 116.681, 501.287 118.866 M 109 121.820 C 104.481 123.868, 101.271 127.333, 94.125 137.876 C 71.306 171.544, 45.404 225.691, 29.966 272 C 17.507 309.370, 14.346 322.025, 9.353 354.500 C 5.773 377.794, 5.539 401.164, 8.738 416.145 C 15.177 446.299, 31.861 458.267, 56.675 450.531 C 91.766 439.590, 134.498 404.976, 191.248 341.522 C 194.806 337.544, 194.806 337.544, 194.278 344.127 C 193.329 355.952, 197.188 362, 205.685 362 C 214.041 362, 217.114 359.225, 229.295 340.677 C 237.717 327.854, 237.717 327.854, 238.277 332.025 C 238.901 336.677, 241.949 340.566, 245.504 341.245 C 249.008 341.915, 253.876 339.894, 260.448 335.039 C 264.413 332.109, 266.060 331.312, 265.497 332.596 C 261.354 342.038, 258.969 350.896, 259.411 355.196 C 260.337 364.211, 264.849 369, 272.416 369 C 279.200 369, 287.483 358.563, 301.003 332.978 C 304.921 325.565, 308.475 319.145, 308.902 318.711 C 309.329 318.276, 309.639 322.848, 309.589 328.870 C 309.506 339.142, 309.650 339.980, 311.924 342.410 C 318.114 349.023, 328.665 343.370, 350.324 321.836 C 358.719 313.489, 361.076 310.562, 360.824 308.797 C 360.646 307.545, 359.825 306.392, 359 306.235 C 358.175 306.078, 352.706 310.617, 346.847 316.322 C 331.332 331.430, 319.497 339.848, 317.132 337.459 C 316.784 337.108, 316.681 333.824, 316.901 330.160 C 317.846 314.482, 317.655 312.324, 315.076 309.580 C 309.380 303.519, 303.384 308.541, 292.500 328.492 C 284.525 343.110, 278.852 351.474, 275.804 353.105 C 273.820 354.167, 273.741 354.045, 274.373 350.887 C 275.391 345.797, 285.109 326.230, 290.830 317.751 C 297.018 308.582, 300.052 306.025, 304.546 306.194 C 308.799 306.354, 311 304.548, 311 300.901 C 311 297.270, 307.335 294.727, 302.103 294.727 C 295.423 294.727, 289.254 299.134, 275.176 313.964 C 264.076 325.656, 253.484 334.818, 252.363 333.696 C 252.198 333.531, 253.212 330.092, 254.616 326.055 C 256.375 320.996, 256.976 317.683, 256.547 315.400 C 255.907 311.988, 251.935 308, 249.176 308 C 246.376 308, 237.990 318.196, 226.444 335.638 C 216.198 351.117, 211.357 357, 208.865 357 C 207.143 357, 208.099 352.281, 212.106 341 C 226.008 301.867, 226.144 301.345, 223.171 298.655 C 219.178 295.041, 216.114 296.711, 209.530 306.093 C 199.411 320.514, 149.562 373.640, 126.381 394.708 C 109.317 410.218, 86.244 426.841, 71.500 434.247 C 62.449 438.794, 49.036 443.006, 43.698 442.978 C 32.671 442.920, 24.745 434.753, 20.372 418.940 C 18.952 413.804, 18.592 408.652, 18.595 393.500 C 18.599 370.006, 20.231 358.054, 27.469 328.500 C 33.946 302.053, 39.206 285.918, 49.804 260 C 68.133 215.170, 78.282 194.518, 99.316 159.250 C 108.041 144.620, 108.542 144, 111.633 144 C 120.280 144, 122.972 126.623, 114.966 122.483 C 111.843 120.868, 111.248 120.802, 109 121.820 M 504.137 130.619 C 496.766 134.292, 483.325 147.388, 473.535 160.436 C 462.533 175.099, 444.126 203.310, 432.977 222.594 C 424.342 237.530, 424.088 238.141, 426.738 237.591 C 439.559 234.931, 477.016 231, 489.539 231 C 494.656 231, 494.656 231, 499.786 214.750 C 510.655 180.321, 517.519 145.911, 515.580 135.574 C 514.932 132.121, 512.003 128, 510.196 128 C 509.754 128, 507.028 129.179, 504.137 130.619 M 783.203 312.629 C 780.616 316.825, 773.929 325.534, 768.341 331.984 C 753.912 348.639, 742.641 358.472, 726.316 368.647 C 720.226 372.443, 717.790 373.404, 714.148 373.447 C 709.692 373.499, 709.569 373.415, 708.374 369.500 C 707.703 367.300, 707.119 362.334, 707.077 358.465 C 707 351.429, 707 351.429, 713.695 348.128 C 722.708 343.683, 731.194 336.846, 736.564 329.703 C 740.380 324.627, 741 323.129, 741 318.990 C 741 314.844, 740.574 313.819, 737.923 311.589 C 728.232 303.434, 708.017 315.118, 697.635 334.875 C 688.627 352.018, 688.743 373.979, 697.891 383.126 C 702.305 387.540, 708.447 389.523, 713.436 388.145 C 720.216 386.273, 737.767 372.326, 756.885 353.619 C 763.696 346.953, 768.943 342.400, 768.545 343.500 C 768.147 344.600, 767.346 348.303, 766.766 351.728 C 765.875 356.990, 765.982 358.664, 767.454 362.520 C 769.557 368.025, 772.423 370.092, 778.269 370.318 C 786.294 370.629, 789.477 367.538, 804.279 345.065 C 810.494 335.629, 810.494 335.629, 811.199 340.565 C 812.487 349.585, 818.908 351.483, 828.878 345.790 C 835.671 341.911, 862.210 316.327, 861.776 314.075 C 861.007 310.082, 857.710 312.189, 846.382 323.910 C 835.724 334.938, 825.715 343.048, 824.393 341.726 C 824.100 341.434, 824.863 339.013, 826.087 336.347 C 830.971 325.711, 829.387 317, 822.570 317 C 817.948 317, 812.853 322.813, 798.324 344.664 C 787.944 360.274, 783.932 365, 781.060 365 C 779.142 365, 781.331 357.653, 792.531 326.500 C 795.101 319.350, 797.428 312.532, 797.700 311.348 C 798.384 308.377, 794.795 305, 790.953 305 C 788.234 305, 787.399 305.822, 783.203 312.629 M 723.557 320.250 C 718.874 325.112, 709.272 341.605, 710.442 342.775 C 711.606 343.939, 722.669 336.023, 728.052 330.174 C 734.100 323.603, 736.081 319.008, 733.966 316.459 C 731.748 313.786, 728.720 314.889, 723.557 320.250 M 559.333 373.417 C 550.831 382.644, 543.714 394.287, 539.928 405.164 C 537.113 413.253, 536.131 421.345, 537.837 422.399 C 541.262 424.516, 552.693 406.711, 559.430 388.767 C 562.212 381.355, 566.983 366, 566.502 366 C 566.318 366, 563.091 369.338, 559.333 373.417 M 65.786 492.447 C 65.384 523.500, 65.119 520.456, 68.250 520.816 C 71 521.133, 71 521.133, 71 512.066 C 71 503, 71 503, 76.032 503 C 86.264 503, 91.989 497.917, 91.996 488.827 C 91.999 485.257, 91.390 483.428, 89.417 481.084 C 86.347 477.436, 82.974 476.398, 73.250 476.110 C 66 475.895, 66 475.895, 65.786 492.447 M 131 486.843 C 131 492.257, 130.706 502.157, 130.346 508.843 C 129.693 521, 129.693 521, 132.846 521 C 136 521, 136 521, 136 511.464 C 136 501.928, 136 501.928, 145.705 502.214 C 155.409 502.500, 155.409 502.500, 155.123 512.250 C 154.837 522, 154.837 522, 157.881 522 C 160.924 522, 160.924 522, 161.212 500.491 C 161.370 488.661, 161.350 478.536, 161.167 477.991 C 160.983 477.446, 159.746 477, 158.417 477 C 156.022 477, 156 477.092, 156 487 C 156 497, 156 497, 145.940 497 C 135.880 497, 135.880 497, 136.006 488.250 C 136.075 483.438, 136.102 478.938, 136.066 478.250 C 136.030 477.563, 134.875 477, 133.500 477 C 131.003 477, 131 477.010, 131 486.843 M 212.500 479.659 C 204.040 484.111, 199.624 491.460, 199.673 501.003 C 199.765 518.614, 216.365 529.104, 231.895 521.365 C 246.577 514.049, 248.953 494.068, 236.448 483.088 C 234.429 481.316, 231.674 479.446, 230.324 478.933 C 226.452 477.461, 215.856 477.893, 212.500 479.659 M 277.362 480.500 C 276.212 483.495, 277.799 485, 282.106 485 C 286.274 485, 286.274 485, 285.887 504.250 C 285.500 523.500, 285.500 523.500, 288.250 523.816 C 291 524.133, 291 524.133, 291.118 505.316 C 291.184 494.967, 291.184 486.163, 291.118 485.750 C 291.053 485.337, 293.025 485, 295.500 485 C 299.833 485, 300 484.889, 300 482 C 300 479, 300 479, 288.969 479 C 280.085 479, 277.825 479.292, 277.362 480.500 M 350.500 479.935 C 339.533 482.605, 333 491.179, 333 502.903 C 333 510.583, 334.169 513.530, 339.298 518.783 C 343.630 523.219, 350.305 526.022, 356.432 525.978 C 360.147 525.951, 367.631 522.686, 370.847 519.688 C 377.996 513.025, 379.859 499.513, 374.813 490.930 C 371.769 485.752, 366.384 481.673, 360.500 480.088 C 356.058 478.892, 354.860 478.874, 350.500 479.935 M 427.500 482.606 C 418.745 487.368, 414.572 494.465, 414.530 504.664 C 414.503 511.048, 414.829 512.296, 417.528 516.136 C 424.786 526.463, 435.940 529.710, 446.467 524.560 C 453.211 521.260, 458.031 514.907, 458.771 508.341 C 459.267 503.942, 459.267 503.942, 445.383 504.221 C 432.260 504.485, 431.500 504.609, 431.500 506.500 C 431.500 508.351, 432.262 508.521, 441.750 508.785 C 447.828 508.954, 452 509.483, 452 510.085 C 452 515.285, 443.918 521, 436.564 521 C 427.726 521, 421.082 514.904, 420.227 506.012 C 419.586 499.336, 420.435 496.631, 424.633 491.984 C 431.047 484.885, 440.497 484.310, 447.813 490.572 C 451.285 493.544, 457 495.306, 457 493.404 C 457 491.540, 453.007 486.584, 449.606 484.227 C 446.296 481.933, 444.466 481.458, 438.086 481.237 C 432.563 481.046, 429.684 481.418, 427.500 482.606 M 71.625 485.125 C 71.281 486.844, 71 490.219, 71 492.625 C 71 497, 71 497, 76.277 497 C 83.637 497, 86 495.151, 86 489.392 C 86 485.209, 85.760 484.798, 82.532 483.449 C 80.625 482.652, 77.531 482, 75.657 482 C 72.641 482, 72.178 482.359, 71.625 485.125 M 497.513 501.110 C 496.617 525.365, 496.728 526.500, 500 526.500 C 502.500 526.500, 502.500 526.500, 502.772 507.135 C 503.044 487.770, 503.044 487.770, 509.543 488.184 C 517.355 488.681, 520.136 490.806, 520.294 496.397 C 520.434 501.326, 517.569 504.069, 511.573 504.745 C 509.016 505.033, 507.053 505.564, 507.211 505.924 C 507.370 506.285, 510.190 511.174, 513.478 516.790 C 519.127 526.439, 519.635 527, 522.728 527 C 524.527 527, 526 526.811, 526 526.579 C 526 526.348, 523.800 522.611, 521.110 518.275 C 516.221 510.391, 516.221 510.391, 519.069 509.130 C 525.304 506.370, 527.827 497.088, 524.248 490.071 C 521.282 484.253, 518.477 482.928, 507.782 482.290 C 498.229 481.720, 498.229 481.720, 497.513 501.110 M 215.500 484.890 C 213.300 485.905, 210.517 487.808, 209.317 489.118 C 199.600 499.718, 207.152 518, 221.247 518 C 227.662 518, 232.571 515.605, 235.629 510.984 C 240.482 503.651, 239.989 495.208, 234.345 488.960 C 229.011 483.056, 222.514 481.653, 215.500 484.890 M 573.235 493.200 C 570.960 498.865, 566.984 508.571, 564.401 514.768 C 561.817 520.966, 559.910 526.244, 560.163 526.497 C 560.416 526.750, 561.670 527.079, 562.948 527.228 C 564.953 527.463, 565.634 526.607, 567.887 521.029 C 569.324 517.470, 570.837 514.658, 571.250 514.779 C 571.663 514.901, 575.784 515, 580.410 515 C 588.820 515, 588.820 515, 591.151 521.500 C 593.255 527.366, 593.751 528, 596.241 528 C 597.758 528, 599 527.578, 599 527.062 C 599 526.546, 595.434 516.533, 591.077 504.812 C 583.404 484.174, 583.062 483.491, 580.262 483.200 C 577.466 482.911, 577.236 483.238, 573.235 493.200 M 635.448 485.276 C 635.178 485.978, 635.080 495.990, 635.229 507.526 C 635.499 528.422, 635.508 528.501, 637.750 528.820 C 639.921 529.128, 640.004 528.846, 640.118 520.820 C 640.184 516.244, 640.184 512.163, 640.118 511.750 C 640.053 511.337, 642.519 511, 645.599 511 C 653.484 511, 657.801 508.704, 660.227 503.220 C 663.889 494.942, 659.677 486.629, 650.972 484.950 C 644.099 483.624, 636.016 483.794, 635.448 485.276 M 348.450 486.351 C 346.773 487.112, 344.224 489.133, 342.786 490.842 C 335.768 499.183, 336.927 510.435, 345.497 517.177 C 349.593 520.398, 360.467 520.528, 364.677 517.406 C 371.375 512.438, 373.955 501.923, 370.344 494.312 C 366.956 487.173, 355.678 483.072, 348.450 486.351 M 700.667 485.667 C 700.300 486.033, 700 495.933, 700 507.667 C 700 529, 700 529, 702.500 529 C 704.956 529, 705 528.861, 705 521.082 C 705 509.651, 704.683 510, 715.071 510 C 723.928 510, 723.928 510, 724.214 519.750 C 724.500 529.500, 724.500 529.500, 727.250 529.816 C 730 530.133, 730 530.133, 730 507.566 C 730 485, 730 485, 727.500 485 C 725 485, 725 485, 725 495 C 725 505, 725 505, 715.250 505.002 C 705.500 505.004, 705.500 505.004, 705.816 495.002 C 706.132 485.023, 706.127 485, 703.733 485 C 702.413 485, 701.033 485.300, 700.667 485.667 M 766 486.835 C 766 487.294, 767.627 491.006, 769.616 495.085 C 778.136 512.556, 778.375 513.245, 778.946 522 C 779.458 529.857, 779.670 530.524, 781.750 530.820 C 783.914 531.127, 784 530.848, 784 523.556 C 784 516.165, 784.177 515.620, 791 502 C 794.850 494.315, 798 487.571, 798 487.013 C 798 486.456, 796.879 486, 795.509 486 C 793.357 486, 792.342 487.348, 788.039 495.923 C 785.300 501.380, 782.658 506.093, 782.167 506.396 C 781.677 506.700, 779.076 502.244, 776.388 496.496 C 771.932 486.966, 771.257 486.041, 768.750 486.022 C 767.237 486.010, 766 486.376, 766 486.835 M 640.833 497.385 C 640.500 505.005, 640.500 505.005, 645.615 505.002 C 651.941 504.999, 656 502.277, 656 498.038 C 656 493.220, 653.079 490.754, 646.749 490.229 C 641.166 489.766, 641.166 489.766, 640.833 497.385 M 576.553 498.750 C 574.954 503.012, 573.452 507.063, 573.215 507.750 C 572.899 508.671, 574.610 509, 579.717 509 C 586.649 509, 586.649 509, 583.574 500.001 C 581.883 495.052, 580.266 491.002, 579.981 491.001 C 579.696 491, 578.153 494.488, 576.553 498.750" stroke="none" fill="#000000" fill-rule="evenodd"/></svg>